<?xml version="1.0" standalone="no"?>
<!DOCTYPE svg PUBLIC "-//W3C//DTD SVG 20010904//EN"
 "http://www.w3.org/TR/2001/REC-SVG-20010904/DTD/svg10.dtd">
<svg version="1.0" xmlns="http://www.w3.org/2000/svg"
 width="2589.000000pt" height="1944.000000pt" viewBox="0 0 2589.000000 1944.000000"
 preserveAspectRatio="xMidYMid meet">

<g transform="translate(0.000000,1944.000000) scale(0.100000,-0.100000)"
fill="#000000" stroke="none">
<path d="M12320 19429 c-2604 -94 -5113 -782 -7195 -1972 -1936 -1107 -3426
-2601 -4284 -4297 -722 -1426 -984 -2963 -765 -4490 385 -2688 2266 -5141
5189 -6770 237 -132 717 -374 970 -490 1549 -707 3283 -1164 5065 -1334 648
-62 1109 -80 1830 -73 559 6 677 11 1160 47 2099 160 4177 734 5940 1642 2471
1272 4285 3140 5125 5278 484 1231 638 2514 454 3794 -295 2062 -1469 3999
-3359 5538 -2602 2121 -6311 3266 -10130 3127z m1060 -629 c2898 -94 5564
-900 7710 -2331 820 -547 1564 -1197 2145 -1874 1560 -1818 2184 -3958 1780
-6101 -221 -1167 -777 -2326 -1609 -3353 -272 -336 -743 -829 -1061 -1112
-820 -730 -1782 -1363 -2827 -1860 -2269 -1081 -4930 -1577 -7603 -1419 -3310
197 -6328 1359 -8475 3264 -185 164 -563 538 -733 726 -1074 1184 -1749 2516
-1982 3914 -98 591 -118 1186 -59 1781 138 1391 712 2734 1686 3942 347 430
803 897 1252 1282 974 834 2144 1531 3454 2057 1925 775 4140 1154 6322 1084z"/>
<path d="M12295 18254 c-33 -2 -152 -8 -265 -14 -1679 -88 -3382 -470 -4850
-1087 -1879 -791 -3395 -1920 -4440 -3308 -732 -972 -1197 -2059 -1359 -3180
-40 -275 -52 -440 -58 -775 -9 -527 25 -899 128 -1398 641 -3105 3643 -5729
7724 -6750 1526 -382 3173 -526 4780 -416 2945 200 5652 1211 7625 2848 461
383 940 865 1286 1296 593 739 1004 1478 1280 2305 151 455 242 876 301 1405
25 223 25 964 0 1195 -81 743 -254 1385 -551 2049 -254 565 -612 1143 -1030
1661 -342 424 -831 916 -1281 1292 -1618 1348 -3797 2296 -6166 2683 -541 88
-967 135 -1634 181 -148 10 -1354 21 -1490 13z m1195 -374 c705 -29 1307 -90
1965 -201 4112 -692 7380 -3041 8378 -6019 315 -939 395 -1945 232 -2911 -275
-1628 -1224 -3152 -2735 -4395 -895 -736 -1992 -1362 -3190 -1822 -1829 -701
-3890 -1020 -5970 -921 -3090 145 -5933 1205 -7938 2957 -205 179 -614 586
-787 782 -957 1085 -1541 2291 -1720 3555 -49 350 -69 875 -46 1222 125 1860
1099 3597 2806 5003 1080 889 2481 1628 3972 2094 1226 383 2507 602 3838 655
287 12 919 12 1195 1z"/>
<path d="M6554 14593 l-1181 -3 -6 -2617 c-4 -1439 -5 -2618 -4 -2620 2 -2
815 -6 1808 -9 l1804 -7 109 67 c236 144 507 378 663 571 217 269 369 581 445
912 22 98 22 102 26 1138 3 1037 3 1040 -19 1135 -64 280 -207 566 -410 817
-209 259 -540 520 -753 595 l-81 28 -610 -3 c-335 -1 -1141 -3 -1791 -4z
m2397 -365 c242 -120 512 -372 696 -647 113 -170 209 -397 247 -583 23 -114
24 -1734 1 -1878 -62 -386 -254 -750 -551 -1046 -121 -121 -305 -265 -436
-341 l-83 -49 -1562 4 -1563 4 0 1892 c0 1040 3 2070 7 2288 l6 398 176 3 c97
1 804 2 1572 2 l1396 0 94 -47z"/>
<path d="M6065 13832 c-3 -3 -5 -848 -5 -1878 l0 -1872 1298 -4 1297 -4 62 33
c216 116 431 338 542 561 41 82 94 240 122 367 23 98 23 112 26 894 4 874 6
846 -59 1051 -109 342 -376 697 -613 814 l-70 35 -1297 4 c-714 2 -1300 1
-1303 -1z m2370 -712 c154 -74 328 -303 406 -535 l24 -70 0 -575 0 -575 -28
-90 c-61 -195 -179 -354 -350 -469 l-82 -56 -847 0 -848 0 0 773 c0 426 3 963
7 1195 l6 422 835 0 c814 0 837 -1 877 -20z"/>
<path d="M6977 12503 c-4 -190 -7 -600 -7 -910 l0 -563 568 0 567 0 85 57
c113 75 206 170 252 259 68 128 70 144 75 590 5 358 4 406 -12 460 -38 132
-137 276 -253 367 -118 92 -71 87 -708 87 l-561 0 -6 -347z m1060 76 c53 -33
149 -144 182 -211 50 -102 54 -140 44 -474 l-9 -302 -37 -74 c-41 -84 -112
-162 -191 -211 l-51 -32 -377 3 -378 3 0 662 0 662 392 -3 c368 -3 395 -5 425
-23z"/>
<path d="M13493 14525 c-749 -95 -1366 -440 -1785 -1000 -359 -479 -562 -1082
-621 -1841 l-4 -51 1659 -1918 1658 -1918 -40 -74 c-80 -149 -174 -244 -295
-300 -79 -36 -212 -44 -301 -18 -178 52 -347 195 -489 415 -88 135 -193 371
-251 563 l-18 57 -949 0 -950 0 6 -217 c3 -120 13 -274 22 -343 104 -834 475
-1489 1091 -1927 569 -405 1330 -573 2044 -452 733 124 1350 525 1756 1141
192 291 352 684 438 1078 28 131 63 357 68 443 l3 57 -1600 1902 -1600 1901 1
50 c2 36 13 72 43 132 159 321 642 406 994 175 214 -139 349 -363 402 -664 8
-49 15 -109 15 -135 0 -25 3 -62 6 -82 l6 -37 537 -6 c295 -3 707 -8 915 -11
l379 -4 -6 252 c-8 327 -37 545 -112 832 -179 686 -543 1239 -1036 1570 -93
63 -314 174 -455 228 -208 81 -471 150 -719 189 -172 27 -643 34 -812 13z
m797 -330 c610 -87 1142 -419 1505 -940 264 -380 451 -890 530 -1447 l6 -48
-388 1 c-213 1 -491 4 -617 8 l-230 6 -12 75 c-94 552 -493 924 -1052 980
-189 19 -410 -17 -577 -94 -288 -133 -453 -370 -471 -676 l-5 -95 1601 -1905
c881 -1048 1604 -1912 1608 -1920 8 -20 -23 -257 -53 -406 -119 -584 -396
-1074 -796 -1405 -321 -266 -709 -445 -1129 -520 -167 -30 -472 -37 -648 -15
-798 102 -1561 641 -1909 1347 -139 282 -207 539 -220 833 l-6 139 198 -6
c109 -4 404 -7 655 -7 l457 0 18 -47 c63 -168 168 -366 263 -493 72 -97 220
-249 302 -310 198 -146 438 -219 638 -192 203 27 362 110 522 271 47 47 113
127 146 176 74 108 167 291 158 307 -4 7 -757 882 -1672 1947 l-1664 1934 6
126 c30 579 200 1043 534 1461 412 515 1067 864 1743 930 131 12 421 5 559
-15z"/>
<path d="M13720 13878 c-410 -35 -839 -208 -1165 -471 -111 -90 -276 -263
-363 -382 -216 -295 -366 -664 -422 -1040 -5 -38 -12 -84 -15 -102 -5 -30 77
-125 1686 -1959 l1692 -1928 -6 -136 c-10 -223 -61 -393 -169 -568 -65 -106
-242 -288 -346 -356 -152 -100 -330 -174 -512 -213 -120 -25 -411 -25 -529 1
-517 112 -899 464 -1016 934 -13 53 -27 109 -30 125 l-5 27 -386 0 -385 0 6
-62 c79 -763 698 -1403 1570 -1624 236 -60 562 -82 790 -54 689 85 1232 495
1529 1155 93 207 167 449 215 702 l19 96 -1654 1929 -1654 1930 0 56 c0 599
475 1111 1135 1224 102 17 146 19 295 15 243 -8 395 -45 588 -143 319 -162
568 -442 724 -811 l51 -123 296 0 c163 0 302 4 309 8 9 6 4 36 -22 133 -157
570 -473 1024 -917 1316 -273 179 -620 295 -963 323 -145 11 -196 11 -346 -2z"/>
<path d="M19163 12678 c-517 -42 -949 -442 -1039 -963 -24 -133 -15 -348 19
-477 68 -258 225 -489 442 -653 210 -158 530 -245 795 -216 276 30 512 142
705 336 519 518 437 1370 -172 1783 -213 144 -480 212 -750 190z m275 -358
c175 -36 349 -143 465 -285 62 -76 141 -239 161 -332 9 -41 16 -118 16 -180 0
-235 -83 -428 -254 -590 -168 -160 -361 -231 -595 -220 -140 6 -208 24 -326
82 -210 105 -361 289 -426 520 -19 65 -23 104 -22 210 0 159 21 245 90 379 39
74 66 110 148 192 83 83 115 108 190 146 185 95 357 119 553 78z"/>
<path d="M19185 11980 c-74 -15 -150 -49 -206 -94 -221 -174 -231 -521 -20
-707 204 -180 513 -150 678 66 83 109 113 261 79 395 -59 231 -301 386 -531
340z"/>
<path d="M18080 7730 l0 -2310 1160 0 1160 0 0 2310 0 2310 -1160 0 -1160 0 0
-2310z m2000 5 l0 -1965 -840 0 -840 0 0 1965 0 1965 840 0 840 0 0 -1965z"/>
<path d="M18760 7730 l0 -1610 480 0 480 0 0 1610 0 1610 -480 0 -480 0 0
-1610z"/>
</g>
</svg>
